<svg width="20" height="20" viewBox="0 0 20 20" fill="none" xmlns="http://www.w3.org/2000/svg">
<path d="M19.6189 19.6555H12.5381C12.3276 19.6555 12.157 19.485 12.157 19.2744V13.9981C12.157 13.4217 11.9322 12.8796 11.5253 12.4718C11.1185 12.064 10.5764 11.8402 10.001 11.8402C8.81098 11.8402 7.84299 12.8081 7.84299 13.9981V19.2744C7.84299 19.485 7.67245 19.6555 7.46189 19.6555H0.381098C0.170541 19.6555 0 19.485 0 19.2744V8.79328C0 8.68181 0.0495427 8.5751 0.134337 8.50269L9.75419 0.340535C9.89615 0.219537 10.1048 0.219537 10.2477 0.340535L19.8657 8.50269C19.9514 8.5751 20 8.68181 20 8.79328V19.2754C20 19.4859 19.8295 19.6565 19.6189 19.6565V19.6555ZM12.9192 18.8933H19.2378V8.96954L10 1.13131L0.762195 8.96954V18.8943H7.08079V13.9991C7.08079 12.3889 8.39082 11.0789 10.001 11.0789C10.7803 11.0789 11.513 11.3828 12.0646 11.9345C12.6162 12.4861 12.9202 13.2188 12.9202 13.9991V18.8943L12.9192 18.8933Z" fill="#41A884"/>
</svg>
