<svg xmlns="http://www.w3.org/2000/svg" width="1434" height="500" viewBox="0 0 1434 500">
  <defs>
    <style>
      .cls-1 {
        fill-rule: evenodd;
      }
    </style>
  </defs>
  <path id="svg-sns_line2.svg" class="cls-1" d="M1362.87,2526.02h-74.05a20.541,20.541,0,0,0-20.57,20.49V3005.5a20.524,20.524,0,0,0,20.57,20.47h74.05a20.524,20.524,0,0,0,20.57-20.47V2546.51a20.541,20.541,0,0,0-20.57-20.49m509.68,0h-74.04a20.526,20.526,0,0,0-20.56,20.49V2819.2l-210.8-284.07a24.95,24.95,0,0,0-1.6-2.08,1.541,1.541,0,0,0-.14-0.13c-0.4-.45-0.81-0.86-1.23-1.26-0.13-.12-0.25-0.24-0.38-0.35-0.35-.32-0.72-0.63-1.1-0.92a5.473,5.473,0,0,0-.54-0.41c-0.35-.25-0.7-0.5-1.06-0.74-0.2-.13-0.4-0.24-0.62-0.36-0.37-.22-0.73-0.43-1.1-0.62-0.22-.1-0.43-0.21-0.65-0.31-0.38-.17-0.77-0.35-1.18-0.5-0.24-.08-0.44-0.17-0.67-0.23a12.428,12.428,0,0,0-1.22-.4c-0.23-.07-0.46-0.12-0.71-0.18-0.4-.11-0.79-0.19-1.19-0.27-0.28-.05-0.58-0.08-0.86-0.12-0.35-.06-0.72-0.1-1.09-0.13-0.34-.03-0.7-0.05-1.06-0.07-0.25,0-.47-0.03-0.72-0.03h-74.04a20.532,20.532,0,0,0-20.56,20.49V3005.5a20.515,20.515,0,0,0,20.56,20.47h74.04a20.52,20.52,0,0,0,20.58-20.47V2732.89l211.06,284.44a20.452,20.452,0,0,0,5.21,5.05,1.629,1.629,0,0,1,.22.17c0.42,0.26.83,0.53,1.27,0.76,0.2,0.12.38,0.22,0.58,0.32,0.31,0.17.65,0.33,0.98,0.48,0.34,0.13.65,0.28,1,.42,0.22,0.08.4,0.16,0.62,0.23,0.48,0.17.93,0.31,1.4,0.45,0.1,0.02.2,0.05,0.3,0.06a20.117,20.117,0,0,0,5.26.7h74.04a20.511,20.511,0,0,0,20.57-20.47V2546.51a20.528,20.528,0,0,0-20.57-20.49m-688.17,385.03H983.168V2546.52a20.526,20.526,0,0,0-20.546-20.51H888.566A20.542,20.542,0,0,0,868,2546.52V3005.5a20.31,20.31,0,0,0,5.751,14.16,2.321,2.321,0,0,0,.283.32c0.1,0.1.2,0.18,0.3,0.28a20.443,20.443,0,0,0,14.2,5.72H1184.38a20.526,20.526,0,0,0,20.53-20.52v-73.89a20.526,20.526,0,0,0-20.53-20.52m1097.1-270.1a20.513,20.513,0,0,0,20.53-20.52v-73.88a20.522,20.522,0,0,0-20.53-20.53H1985.64a20.517,20.517,0,0,0-14.27,5.78,1.584,1.584,0,0,1-.23.22l-0.33.36a20.39,20.39,0,0,0-5.7,14.14V3005.5a20.356,20.356,0,0,0,5.75,14.17,3.92,3.92,0,0,0,.28.31,2.612,2.612,0,0,0,.3.27,20.427,20.427,0,0,0,14.2,5.74h295.84a20.526,20.526,0,0,0,20.53-20.52v-73.9a20.526,20.526,0,0,0-20.53-20.52H2080.29v-77.59h201.19a20.513,20.513,0,0,0,20.53-20.52v-73.88a20.53,20.53,0,0,0-20.53-20.54H2080.29v-77.57h201.19Z" transform="translate(-868 -2526)"/>
</svg>
