<svg xmlns="http://www.w3.org/2000/svg" width="632.97" height="500.031" viewBox="0 0 632.97 500.031">
  <defs>
    <style>
      .cls-1 {
        fill-rule: evenodd;
      }
    </style>
  </defs>
  <path id="svg-sns_twitter.svg" class="cls-1" d="M1884.52,280.247a265.731,265.731,0,0,1-82.51,30.65,131.179,131.179,0,0,0-94.76-39.888c-71.73,0-129.87,56.547-129.87,126.24A123.411,123.411,0,0,0,1580.75,426c-107.91-5.257-203.6-55.535-267.64-131.913a122.671,122.671,0,0,0-17.56,63.458c0,43.816,22.94,82.463,57.75,105.075a132.57,132.57,0,0,1-58.81-15.85v1.577c0,61.17,44.77,112.174,104.14,123.82a133.094,133.094,0,0,1-58.66,2.139c16.54,50.147,64.48,86.656,121.28,87.706a265.352,265.352,0,0,1-161.26,54.012,280.815,280.815,0,0,1-30.98-1.727,375.394,375.394,0,0,0,199.06,56.716c238.84,0,369.44-192.387,369.44-359.229l-0.42-16.357a257.423,257.423,0,0,0,64.89-65.263,265.334,265.334,0,0,1-74.55,19.888A127.623,127.623,0,0,0,1884.52,280.247Z" transform="translate(-1269 -271)"/>
</svg>
