<svg xmlns="http://www.w3.org/2000/svg" width="1865" height="500" viewBox="0 0 1865 500">
  <defs>
    <style>
      .cls-1 {
        fill-rule: evenodd;
      }
    </style>
  </defs>
  <path id="svg-sns_line4.svg" class="cls-1" d="M592.256,2330.79H658.3a15.222,15.222,0,0,0,15.247-15.16V1906.37a15.222,15.222,0,0,0-15.247-15.16H592.256a15.216,15.216,0,0,0-15.231,15.16v409.26A15.216,15.216,0,0,0,592.256,2330.79Zm169.2,0h66.051a15.212,15.212,0,0,0,15.226-15.16V2058.09l196.416,266.23a15.026,15.026,0,0,0,3.89,3.78l2.99,1.6c0.85,0.3,1.17.42,1.5,0.5a15.67,15.67,0,0,0,4.14.59h63.51a15.21,15.21,0,0,0,15.23-15.16V1906.37a15.21,15.21,0,0,0-15.23-15.16h-66.05a15.219,15.219,0,0,0-15.24,15.16v255.08L837.722,1898.07a16.157,16.157,0,0,0-1.289-1.66c-0.367-.41-0.671-0.73-0.99-1.03-0.559-.5-0.831-0.73-1.108-0.95-0.649-.48-0.905-0.65-1.151-0.81l-4.057-1.82-2.855-.52-0.788-.05-64.027-.02a15.219,15.219,0,0,0-15.243,15.16v409.26A15.219,15.219,0,0,0,761.457,2330.79Zm-526.252,0H499.088a15.215,15.215,0,0,0,15.2-15.19v-65.89a15.218,15.218,0,0,0-15.2-15.2H316.519V1906.37a15.224,15.224,0,0,0-15.252-15.16h-66.03A15.213,15.213,0,0,0,220,1906.37V2315.6a15.018,15.018,0,0,0,4.249,10.51A15.459,15.459,0,0,0,235.205,2330.79Zm972.7-4.1a15.1,15.1,0,0,0,10.38,4.1h263.91a15.217,15.217,0,0,0,15.2-15.19v-65.89a15.219,15.219,0,0,0-15.2-15.2H1299.61v-75.38h182.58a15.217,15.217,0,0,0,15.2-15.19v-65.88a15.219,15.219,0,0,0-15.2-15.2H1299.61v-75.39h182.58a15.217,15.217,0,0,0,15.2-15.19V1906.4a15.21,15.21,0,0,0-15.2-15.19H1218.31a15.176,15.176,0,0,0-10.59,4.27,15.435,15.435,0,0,0-4.64,10.89V2315.6a15,15,0,0,0,4.25,10.51Zm626.47-465.7c-138.21,0-250.65,112.15-250.65,250.01s112.44,250,250.65,250a250.921,250.921,0,0,0,77.86-12.31l14.9-5.23a10.078,10.078,0,0,0,6.55-12.65l-14.36-44.07a10.026,10.026,0,0,0-12.69-6.41l-14.99,5.26a184.605,184.605,0,0,1-57.27,9.05c-101.52,0-184.12-82.38-184.12-183.64s82.6-183.65,184.12-183.65,184.11,82.38,184.11,183.65c0,20.71-3.91,42.38-11.62,64.41-5.6,16-18.62,29.02-29.01,29.02a25.675,25.675,0,0,1-25.68-25.61V2002.03a10.036,10.036,0,0,0-10.04-10.02h-46.45a10,10,0,0,0-9.98,9.51l-0.2,3.9-3.44-1.86a122.624,122.624,0,0,0-58.02-14.62c-67.47,0-122.36,54.76-122.36,122.06s54.89,122.05,122.36,122.05a122.03,122.03,0,0,0,65.52-19.04l2.44-1.56,1.15,2.66a92.252,92.252,0,0,0,84.7,55.68c39.52,0,76.41-29.54,91.81-73.5,10.19-29.07,15.35-58.11,15.35-86.29C2085.01,1973.14,1972.57,1860.99,1834.37,1860.99ZM1884.74,2111a60.485,60.485,0,1,1-60.49-60.33A60.485,60.485,0,0,1,1884.74,2111Z" transform="translate(-220 -1861)"/>
</svg>
