<svg xmlns="http://www.w3.org/2000/svg" width="500" height="500" viewBox="0 0 500 500">
  <defs>
    <style>
      .cls-1 {
        fill-rule: evenodd;
      }
    </style>
  </defs>
  <path id="svg-instagram.svg" class="cls-1" d="M1405.01,2499H1180.97c-76.08,0-137.97,61.9-137.97,137.98v224.03c0,76.09,61.89,137.99,137.97,137.99h224.04c76.08,0,137.99-61.9,137.99-137.99V2636.98C1543,2560.9,1481.09,2499,1405.01,2499Zm93.62,362.01a93.725,93.725,0,0,1-93.62,93.63H1180.97a93.729,93.729,0,0,1-93.61-93.63V2636.98a93.727,93.727,0,0,1,93.61-93.62h224.04a93.729,93.729,0,0,1,93.62,93.62v224.03h0Zm-205.64-240.85c-71.04,0-128.83,57.8-128.83,128.85A128.835,128.835,0,1,0,1292.99,2620.16Zm0,213.31a84.47,84.47,0,1,1,84.48-84.47A84.568,84.568,0,0,1,1292.99,2833.47Zm134.25-250.92a32.5,32.5,0,1,0,23.01,9.52A32.654,32.654,0,0,0,1427.24,2582.55Z" transform="translate(-1043 -2499)"/>
</svg>
