<?xml version="1.0" encoding="utf-8"?>
<!-- Generator: Adobe Illustrator 26.2.1, SVG Export Plug-In . SVG Version: 6.00 Build 0)  -->
<svg version="1.1" id="レイヤー_1" xmlns="http://www.w3.org/2000/svg" xmlns:xlink="http://www.w3.org/1999/xlink" x="0px"
	 y="0px" viewBox="0 0 29 27" style="enable-background:new 0 0 29 27;" xml:space="preserve">
<style type="text/css">
	.st0{fill:#FFFFFF;}
</style>
<path class="st0" d="M28.6,11.4c0-6.3-6.3-11.4-14-11.4c-7.7,0-14,5.1-14,11.4c0,5.6,5,10.3,11.7,11.2c0.5,0.1,1.1,0.3,1.2,0.7
	c0.1,0.4,0.1,0.9,0,1.3c0,0-0.2,1-0.2,1.2c-0.1,0.4-0.3,1.4,1.2,0.8c1.5-0.6,8.1-4.7,11-8.1C27.7,16.1,28.7,13.9,28.6,11.4
	L28.6,11.4z M9.7,14.7c0,0.1-0.1,0.3-0.3,0.3v0H5.5c-0.1,0-0.3-0.1-0.3-0.3V8.6c0-0.1,0.1-0.3,0.3-0.3h1c0.1,0,0.3,0.1,0.3,0.3v4.8
	h2.7c0.1,0,0.3,0.1,0.3,0.3V14.7z M12.1,14.7c0,0.1-0.1,0.3-0.3,0.3h-1c-0.1,0-0.3-0.1-0.3-0.3V8.6c0-0.1,0.1-0.3,0.3-0.3h1
	c0.1,0,0.3,0.1,0.3,0.3V14.7z M18.8,14.7c0,0.1-0.1,0.3-0.3,0.3h-1c0,0,0,0-0.1,0h0c0,0,0,0,0,0h0l0,0l0,0h0c0,0,0,0,0,0
	c0,0,0,0-0.1-0.1l-2.8-3.8v3.6c0,0.1-0.1,0.3-0.3,0.3h-1c-0.1,0-0.3-0.1-0.3-0.3V8.6c0-0.1,0.1-0.3,0.3-0.3h1c0,0,0,0,0,0
	c0,0,0,0,0,0h0c0,0,0,0,0,0h0c0,0,0,0,0,0h0c0,0,0,0,0,0h0c0,0,0,0,0,0h0c0,0,0,0,0,0l0,0c0,0,0,0,0,0h0c0,0,0,0,0,0c0,0,0,0,0,0
	l2.8,3.8V8.6c0-0.1,0.1-0.3,0.3-0.3h1h0c0.1,0,0.3,0.1,0.3,0.3V14.7z M24.3,9.6c0,0.1-0.1,0.3-0.3,0.3h-2.7v1H24
	c0.1,0,0.3,0.1,0.3,0.3v1c0,0.1-0.1,0.3-0.3,0.3h-2.7v1H24c0.1,0,0.3,0.1,0.3,0.3v1c0,0.1-0.1,0.3-0.3,0.3v0h-3.9
	c-0.1,0-0.3-0.1-0.3-0.3V8.6v0c0-0.1,0.1-0.3,0.3-0.3H24c0.1,0,0.3,0.1,0.3,0.3V9.6z"/>
</svg>
