<svg xmlns="http://www.w3.org/2000/svg" width="238.03" height="500" viewBox="0 0 238.03 500">
  <defs>
    <style>
      .cls-1 {
        fill-rule: evenodd;
      }
    </style>
  </defs>
  <path id="svg-sns_facebook.svg" class="cls-1" d="M2487.6,552.3h51.65V777.929a7.841,7.841,0,0,0,7.6,8.065h87.57a7.841,7.841,0,0,0,7.6-8.065V553.362h59.38a7.786,7.786,0,0,0,7.55-7.142l9.01-83.067a8.379,8.379,0,0,0-1.87-6.287,7.416,7.416,0,0,0-5.67-2.7h-68.4V402.1c0-15.7,7.97-23.656,23.68-23.656h44.72a7.848,7.848,0,0,0,7.6-8.064V294.13a7.847,7.847,0,0,0-7.6-8.064h-61.63c-0.44-.022-1.4-0.06-2.82-0.06-10.7,0-47.86,2.228-77.22,30.889-32.53,31.76-28.01,69.788-26.93,76.382v60.888H2487.6a7.84,7.84,0,0,0-7.6,8.064v82A7.842,7.842,0,0,0,2487.6,552.3Z" transform="translate(-2480 -286)"/>
</svg>
