<svg xmlns="http://www.w3.org/2000/svg" width="500" height="500" viewBox="0 0 500 500">
  <defs>
    <style>
      .cls-1 {
        fill: #0f0f0f;
        fill-rule: evenodd;
      }
    </style>
  </defs>
  <path id="svg-sns_facebook2.svg" class="cls-1" d="M2575.36,343H2130.64A27.645,27.645,0,0,0,2103,370.643h0V815.357A27.645,27.645,0,0,0,2130.64,843H2370.1V650.024h-65.34V573.952h64.91V518.429a90.9,90.9,0,0,1,97.02-99.834,545.824,545.824,0,0,1,58.6,3.334v67.476h-39.74c-31.31,0-37.36,14.833-37.36,36.666V574.31h75L2513.45,650h-65.21V843h127.19A27.641,27.641,0,0,0,2603,815.357V370.643A27.645,27.645,0,0,0,2575.36,343Z" transform="translate(-2103 -343)"/>
</svg>
