<svg xmlns="http://www.w3.org/2000/svg" width="500" height="500" viewBox="0 0 500 500">
  <defs>
    <style>
      .cls-1 {
        fill-rule: evenodd;
      }
    </style>
  </defs>
  <path id="svg-sns_line3.svg" class="cls-1" d="M2598.67,2402H2315.33A108.329,108.329,0,0,1,2207,2293.67V2010.33A108.329,108.329,0,0,1,2315.33,1902h283.34A108.329,108.329,0,0,1,2707,2010.33v283.34A108.329,108.329,0,0,1,2598.67,2402ZM2457,1989.5c-89.6,0-162.5,72.9-162.5,162.5s72.9,162.5,162.5,162.5a162.462,162.462,0,0,0,50.48-8l9.66-3.4a6.552,6.552,0,0,0,4.24-8.23l-9.3-28.64a6.5,6.5,0,0,0-8.23-4.17l-9.72,3.42A119.388,119.388,0,1,1,2576.37,2152a127.3,127.3,0,0,1-7.54,41.87c-3.63,10.4-12.07,18.86-18.81,18.86a16.67,16.67,0,0,1-16.65-16.65V2081.17a6.515,6.515,0,0,0-6.5-6.51h-30.12a6.5,6.5,0,0,0-6.47,6.18l-0.13,2.53-2.23-1.2a79.344,79.344,0,1,0,4.86,136.78l1.59-1.01,0.74,1.73a59.794,59.794,0,0,0,54.91,36.19c25.62,0,49.55-19.19,59.53-47.77a170.2,170.2,0,0,0,9.95-56.09C2619.5,2062.4,2546.6,1989.5,2457,1989.5Zm32.66,162.5a39.215,39.215,0,1,1-39.22-39.21A39.264,39.264,0,0,1,2489.66,2152Z" transform="translate(-2207 -1902)"/>
</svg>
